<svg width="164" height="130" viewBox="0 0 164 130" fill="none" xmlns="http://www.w3.org/2000/svg">
<g id="composable-templates-icon" clip-path="url(#clip0_34_318)">
<path id="Vector" d="M163.637 130H162.309V129.213H162.056V126.598H163.637V130ZM159.148 130H155.987V128.425H159.148V130ZM152.826 130H149.665V128.425H152.826V130ZM146.504 130H143.343V128.425H146.504V130ZM140.182 130H137.021V128.425H140.182V130ZM133.86 130H130.699V128.425H133.86V130ZM127.538 130H124.377V128.425H127.538V130ZM121.216 130H118.055V128.425H121.216V130ZM114.894 130H111.733V128.425H114.894V130ZM108.572 130H105.411V128.425H108.572V130ZM102.25 130H99.0888V128.425H102.25V130ZM95.9278 130H92.7667V128.425H95.9278V130ZM89.6057 130H86.4447V128.425H89.6057V130ZM83.2837 130H80.1226V128.425H83.2837V130ZM76.9616 130H73.8006V128.425H76.9616V130ZM70.6396 130H67.4785V128.425H70.6396V130ZM64.3175 130H61.1565V128.425H64.3175V130ZM57.9955 130H54.8344V128.425H57.9955V130ZM51.6734 130H48.5124V128.425H51.6734V130ZM45.3513 130H42.1903V128.425H45.3513V130ZM39.0293 130H35.8683V128.425H39.0293V130ZM34.7529 127.962H33.1724V124.812H34.7529V127.962ZM163.637 123.446H162.056V120.296H163.637V123.446ZM34.7529 121.662H33.1724V118.512H34.7529V121.662ZM163.637 117.147H162.056V113.997H163.637V117.147ZM34.7529 115.363H33.1724V112.213H34.7529V115.363ZM163.637 110.847H162.056V107.697H163.637V110.847ZM34.7529 109.063H33.1724V105.913H34.7529V109.063ZM163.637 104.548H162.056V101.398H163.637V104.548ZM34.7529 102.763H33.1724V99.6137H34.7529V102.763ZM163.637 98.2481H162.056V95.0983H163.637V98.2481ZM34.7529 96.464H33.1724V93.3142H34.7529V96.464ZM163.637 91.9485H162.056V88.7988H163.637V91.9485ZM34.7529 90.1644H33.1724V87.0146H34.7529V90.1644ZM163.637 85.649H162.056V82.4992H163.637V85.649ZM34.7529 83.8649H33.1724V80.7151H34.7529V83.8649ZM163.637 79.3494H162.056V76.1997H163.637V79.3494ZM34.7529 77.5653H33.1724V74.4156H34.7529V77.5653ZM163.637 73.0499H162.056V69.9001H163.637V73.0499ZM34.7529 71.2658H33.1724V69.4344H34.7529V71.2658ZM163.637 66.7504H162.056V63.6006H163.637V66.7504ZM163.637 60.4508H162.056V57.3011H163.637V60.4508ZM163.637 54.1513H162.056V51.0015H163.637V54.1513ZM163.637 47.8518H162.056V44.702H163.637V47.8518ZM163.637 41.5522H162.056V38.4024H163.637V41.5522ZM163.637 35.2527H162.056V32.1029H163.637V35.2527ZM163.637 28.9531H162.056V25.8034H163.637V28.9531ZM163.637 22.6536H162.056V19.5038H163.637V22.6536ZM163.637 16.3541H162.056V13.2043H163.637V16.3541ZM34.7529 11.1344H33.1724V7.98467H34.7529V11.1344ZM163.637 10.0545H162.056V6.90475H163.637V10.0545ZM34.7529 4.8349H33.1724V1.68513H34.7529V4.8349ZM163.637 3.75498H162.056V0.787442H162.664V0H163.637V3.75498ZM159.503 1.57488H156.342V0H159.503V1.57488ZM153.181 1.57488H150.02V0H153.181V1.57488ZM146.859 1.57488H143.698V0H146.859V1.57488ZM140.537 1.57488H137.376V0H140.537V1.57488ZM134.215 1.57488H131.054V0H134.215V1.57488ZM127.893 1.57488H124.731V0H127.893V1.57488ZM121.57 1.57488H118.409V0H121.57V1.57488ZM115.248 1.57488H112.087V0H115.248V1.57488ZM108.926 1.57488H105.765V0H108.926V1.57488ZM102.604 1.57488H99.4433V0H102.604V1.57488ZM96.2823 1.57488H93.1212V0H96.2823V1.57488ZM89.9602 1.57488H86.7992V0H89.9602V1.57488ZM83.6382 1.57488H80.4771V0H83.6382V1.57488ZM77.3161 1.57488H74.1551V0H77.3161V1.57488ZM70.994 1.57488H67.833V0H70.994V1.57488ZM64.672 1.57488H61.511V0H64.672V1.57488ZM58.3499 1.57488H55.1889V0H58.3499V1.57488ZM52.0279 1.57488H48.8669V0H52.0279V1.57488ZM45.7058 1.57488H42.5448V0H45.7058V1.57488ZM39.3838 1.57488H36.2228V0H39.3838V1.57488Z" fill="#00F7DB"/>
<path id="Vector_2" d="M96.8149 90.3849V99.868H87.298V111.578H54.2788V78.6768H87.298V90.3849H96.8149Z" fill="#00F7DB"/>
<path id="Vector_3" d="M142.865 112.366H140.322V110.791H141.284V110.174H142.865V112.366ZM137.161 112.366H134V110.791H137.161V112.366ZM130.839 112.366H127.678V110.791H130.839V112.366ZM124.517 112.366H121.356V110.791H124.517V112.366ZM118.195 112.366H115.034V110.791H118.195V112.366ZM111.873 112.366H108.265V111.236H109.055V110.791H111.873V112.366ZM109.846 108.087H108.265V104.937H109.846V108.087ZM142.865 107.025H141.284V103.875H142.865V107.025ZM109.846 101.787H108.265V99.0805H110.29V100.655H109.846V101.787ZM142.865 100.725H141.284V97.5753H142.865V100.725ZM116.612 100.655H113.451V99.0805H116.612V100.655ZM119.363 98.671H117.782V95.5212H119.363V98.671ZM142.865 94.4256H141.284V91.2758H142.865V94.4256ZM119.363 92.3715H117.782V91.1723H117.405V89.5974H119.363V92.3715ZM114.244 91.1723H111.083V89.5974H114.244V91.1723ZM109.846 89.2554H108.265V86.1057H109.846V89.2554ZM142.865 88.126H141.284V84.9763H142.865V88.126ZM109.846 82.9559H108.265V79.8061H109.846V82.9559ZM142.865 81.8265H141.284V78.6767H142.865V81.8265ZM139.532 79.4642H136.371V77.8893H139.532V79.4642ZM133.21 79.4642H130.049V77.8893H133.21V79.4642ZM126.888 79.4642H123.727V77.8893H126.888V79.4642ZM120.566 79.4642H117.405V77.8893H120.566V79.4642ZM114.244 79.4642H111.083V77.8893H114.244V79.4642Z" fill="#00F7DB"/>
<path id="Vector_4" d="M142.864 26.1161H141.284V25.3287H140.494V23.7538H142.864V26.1161Z" fill="#00F7DB"/>
<path id="Vector_5" d="M142.865 52.5607H141.284V49.2557H142.865V52.5607ZM142.865 45.9484H141.284V42.6434H142.865V45.9484ZM142.865 39.3384H141.284V36.0334H142.865V39.3384ZM142.865 32.7262H141.284V29.4211H142.865V32.7262Z" fill="#00F7DB"/>
<path id="Vector_6" d="M142.864 58.228H140.494V56.6532H141.284V55.8657H142.864V58.228Z" fill="#00F7DB"/>
<path id="Vector_7" d="M137.628 56.6531H134.765V58.228H137.628V56.6531Z" fill="#00F7DB"/>
<path id="Vector_8" d="M131.903 58.228H129.532V55.8657H131.112V56.6532H131.903V58.228Z" fill="#00F7DB"/>
<path id="Vector_9" d="M131.112 51.645H129.532V53.7554H131.112V51.645Z" fill="#00F7DB"/>
<path id="Vector_10" d="M131.112 49.5347H129.531V48.7472H128.741V47.1724H131.112V49.5347Z" fill="#00F7DB"/>
<path id="Vector_11" d="M126.623 47.1724H124.505V48.7472H126.623V47.1724Z" fill="#00F7DB"/>
<path id="Vector_12" d="M121.598 49.5347H120.017V47.1724H122.388V48.7472H121.598V49.5347Z" fill="#00F7DB"/>
<path id="Vector_13" d="M121.598 51.645H120.017V53.7554H121.598V51.645Z" fill="#00F7DB"/>
<path id="Vector_14" d="M121.597 58.228H119.227V56.6532H120.017V55.8657H121.597V58.228Z" fill="#00F7DB"/>
<path id="Vector_15" d="M116.362 56.6531H113.499V58.228H116.362V56.6531Z" fill="#00F7DB"/>
<path id="Vector_16" d="M110.636 58.228H108.265V55.8657H109.846V56.6532H110.636V58.228Z" fill="#00F7DB"/>
<path id="Vector_17" d="M109.846 52.5607H108.265V49.2557H109.846V52.5607ZM109.846 45.9484H108.265V42.6434H109.846V45.9484ZM109.846 39.3384H108.265V36.0334H109.846V39.3384ZM109.846 32.7262H108.265V29.4211H109.846V32.7262Z" fill="#00F7DB"/>
<path id="Vector_18" d="M109.846 26.1161H108.265V23.7538H110.636V25.3287H109.846V26.1161Z" fill="#00F7DB"/>
<path id="Vector_19" d="M137.175 25.3287H133.858V23.7538H137.175V25.3287ZM130.541 25.3287H127.224V23.7538H130.541V25.3287ZM123.905 25.3287H120.589V23.7538H123.905V25.3287ZM117.269 25.3287H113.953V23.7538H117.269V25.3287Z" fill="#00F7DB"/>
<path id="Vector_20" d="M55.0058 26.1138H53.4253V23.7515H55.7961V25.3263H55.0058V26.1138Z" fill="#00F7DB"/>
<path id="Vector_21" d="M82.3352 25.3263H79.0184V23.7515H82.3352V25.3263ZM75.7016 25.3263H72.3848V23.7515H75.7016V25.3263ZM69.0657 25.3263H65.7489V23.7515H69.0657V25.3263ZM62.4321 25.3263H59.1152V23.7515H62.4321V25.3263Z" fill="#00F7DB"/>
<path id="Vector_22" d="M88.0231 26.1138H86.4426V25.3263H85.6523V23.7515H88.0231V26.1138Z" fill="#00F7DB"/>
<path id="Vector_23" d="M88.0229 28.9689H86.4424V31.8217H88.0229V28.9689Z" fill="#00F7DB"/>
<path id="Vector_24" d="M88.0231 37.0368H85.6523V35.4619H86.4426V34.6744H88.0231V37.0368Z" fill="#00F7DB"/>
<path id="Vector_25" d="M83.5339 35.4619H81.416V37.0368H83.5339V35.4619Z" fill="#00F7DB"/>
<path id="Vector_26" d="M78.5082 37.8242H76.9277V35.4619H79.2985V37.0368H78.5082V37.8242Z" fill="#00F7DB"/>
<path id="Vector_27" d="M78.5082 39.9346H76.9277V42.0449H78.5082V39.9346Z" fill="#00F7DB"/>
<path id="Vector_28" d="M79.2985 46.5176H76.9277V44.1553H78.5082V44.9427H79.2985V46.5176Z" fill="#00F7DB"/>
<path id="Vector_29" d="M83.5339 44.9427H81.416V46.5176H83.5339V44.9427Z" fill="#00F7DB"/>
<path id="Vector_30" d="M88.0231 47.3051H86.4426V46.5176H85.6523V44.9427H88.0231V47.3051Z" fill="#00F7DB"/>
<path id="Vector_31" d="M88.0229 50.16H86.4424V53.0128H88.0229V50.16Z" fill="#00F7DB"/>
<path id="Vector_32" d="M88.0231 58.228H85.6523V56.6532H86.4426V55.8657H88.0231V58.228Z" fill="#00F7DB"/>
<path id="Vector_33" d="M82.3352 58.228H79.0184V56.6531H82.3352V58.228ZM75.7016 58.228H72.3848V56.6531H75.7016V58.228ZM69.0657 58.228H65.7489V56.6531H69.0657V58.228ZM62.4321 58.228H59.1152V56.6531H62.4321V58.228Z" fill="#00F7DB"/>
<path id="Vector_34" d="M55.7961 58.228H53.4253V55.8657H55.0058V56.6532H55.7961V58.228Z" fill="#00F7DB"/>
<path id="Vector_35" d="M55.0058 52.5607H53.4253V49.2557H55.0058V52.5607ZM55.0058 45.9484H53.4253V42.6434H55.0058V45.9484ZM55.0058 39.3384H53.4253V36.0334H55.0058V39.3384ZM55.0058 32.7262H53.4253V29.4211H55.0058V32.7262Z" fill="#00F7DB"/>
<path id="Vector_36" d="M2.73405 58.228H0.363281V55.8657H1.94379V56.6532H2.73405V58.228Z" fill="#00F7DB"/>
<path id="Vector_37" d="M1.94379 52.5607H0.363281V49.2557H1.94379V52.5607ZM1.94379 45.9484H0.363281V42.6434H1.94379V45.9484ZM1.94379 39.3384H0.363281V36.0334H1.94379V39.3384ZM1.94379 32.7262H0.363281V29.4211H1.94379V32.7262Z" fill="#00F7DB"/>
<path id="Vector_38" d="M1.94379 26.1161H0.363281V23.7538H2.73405V25.3287H1.94379V26.1161Z" fill="#00F7DB"/>
<path id="Vector_39" d="M8.45967 23.7538H5.59668V25.3287H8.45967V23.7538Z" fill="#00F7DB"/>
<path id="Vector_40" d="M13.696 26.1161H12.1155V25.3287H11.3252V23.7538H13.696V26.1161Z" fill="#00F7DB"/>
<path id="Vector_41" d="M13.6957 28.2264H12.1152V30.3368H13.6957V28.2264Z" fill="#00F7DB"/>
<path id="Vector_42" d="M14.486 34.8095H12.1152V32.4471H13.6957V33.2346H14.486V34.8095Z" fill="#00F7DB"/>
<path id="Vector_43" d="M18.7219 33.2346H16.604V34.8095H18.7219V33.2346Z" fill="#00F7DB"/>
<path id="Vector_44" d="M23.2106 34.8095H20.8398V33.2346H21.6301V32.4471H23.2106V34.8095Z" fill="#00F7DB"/>
<path id="Vector_45" d="M23.2104 28.2264H21.6299V30.3368H23.2104V28.2264Z" fill="#00F7DB"/>
<path id="Vector_46" d="M23.2104 26.1161H21.6299V23.7538H24.0007V25.3287H23.2104V26.1161Z" fill="#00F7DB"/>
<path id="Vector_47" d="M29.7268 23.7538H26.8638V25.3287H29.7268V23.7538Z" fill="#00F7DB"/>
<path id="Vector_48" d="M34.9631 26.1161H33.3825V25.3287H32.5923V23.7538H34.9631V26.1161Z" fill="#00F7DB"/>
<path id="Vector_49" d="M34.9628 52.5607H33.3823V49.2557H34.9628V52.5607ZM34.9628 45.9484H33.3823V42.6434H34.9628V45.9484ZM34.9628 39.3384H33.3823V36.0334H34.9628V39.3384ZM34.9628 32.7262H33.3823V29.4211H34.9628V32.7262Z" fill="#00F7DB"/>
<path id="Vector_50" d="M34.9631 58.228H32.5923V56.6532H33.3825V55.8657H34.9631V58.228Z" fill="#00F7DB"/>
<path id="Vector_51" d="M29.275 58.228H25.9582V56.6531H29.275V58.228ZM22.6391 58.228H19.3223V56.6531H22.6391V58.228ZM16.0032 58.228H12.6864V56.6531H16.0032V58.228ZM9.36955 58.228H6.05273V56.6531H9.36955V58.228Z" fill="#00F7DB"/>
</g>
<defs>
<clipPath id="clip0_34_318">
<rect width="163.274" height="130" fill="white" transform="translate(0.363281)"/>
</clipPath>
</defs>
</svg>
