<svg width="529" height="319" viewBox="0 0 529 319" fill="none" xmlns="http://www.w3.org/2000/svg">
<path d="M179.401 163.989C148.053 189.45 167.099 205.53 199.985 207.134C225.643 208.54 251.411 205.003 276.586 200.104C293.37 196.633 310.175 192.657 325.838 186.616C362.854 172.007 443.19 129.675 422.826 80.9285C416.609 66.7373 404.088 56.2808 389.435 51.1403C377.99 46.5271 365.644 43.6272 353.43 41.9577C273.928 31.5449 176.391 54.6992 103.151 86.0912C71.3632 99.7112 40.3007 115.506 11.1714 134.244C24.7914 123.414 39.2682 113.639 54.1184 104.5C132.544 56.4347 223.095 26.69 315.513 24.3834C337.723 24.5152 360.701 26.0969 382.12 32.3797C386.162 33.1706 391.258 35.3673 395.147 36.7513C399.408 38.2671 403.912 40.2224 408.042 42.7048C433.722 57.0278 449.956 90.3527 436.688 118.823C419.18 157.816 368.302 184.133 330.012 198.061C313.141 203.839 295.874 207.463 278.366 210.165C252.29 213.944 225.709 216.36 199.392 213.153C165.078 209.726 143.022 188.439 179.401 164.011V163.989Z" fill="black"/>
<path d="M350.048 142.418C385.46 104.809 316.261 103.623 292.843 103.886C273.116 104.194 253.785 107.928 234.585 112.432C185.553 125.085 132.347 144.131 96.2315 180.62C93.0681 183.827 90.0145 187.583 87.2466 191.098C80.4146 201.819 74.4174 215.021 77.0536 227.631C81.2274 245.227 98.2525 254.585 115.08 260.692C175.096 280.222 249.413 268.381 310.967 257.793C285.418 266.096 259.189 272.138 232.674 276.531C205.961 280.749 178.655 283.275 151.568 281.21C111.17 278.816 49.9452 259.484 63.082 207.508C66.8824 193.031 74.6591 180.4 84.962 169.877C119.342 135.344 165.891 117.177 212.112 105.007C245.085 96.9005 279.399 91.9137 313.295 96.7027C339.152 99.5366 385.02 112.454 350.07 142.44L350.048 142.418Z" fill="black"/>
<path d="M185.443 242.7C275.818 242.7 459.14 190.659 505.36 108.367C519.859 83.5215 522.122 49.6032 497.671 30.4034C479.482 14.2131 456.855 5.77753 432.669 0C462.94 2.21875 504.789 18.2774 521.023 45.7371C538.488 78.9305 520.694 118.143 497.364 143.384C458.591 185.211 404.045 208.189 350.553 224.533C297.325 240.086 240.802 250.279 185.421 242.678L185.443 242.7Z" fill="black"/>
<path d="M279.772 73.5707C228.522 80.8421 178.677 97.23 131.907 119.088C101.064 133.257 72.2425 152.303 48.6271 176.644C28.5705 197.777 3.90067 231.036 20.5523 259.902C37.1819 285.736 77.4709 294.765 106.49 299.773C206.993 315.195 314.416 289.383 409.405 256.629C425.749 250.851 441.983 244.81 457.953 238.022C427.308 254.498 395.147 268.008 362.437 279.893C280.234 308.736 191.418 327.87 104.118 314.821C69.8481 309.198 27.3623 299.224 7.52537 267.722C-13.5637 232.244 13.7862 191.582 38.9613 167.066C64.2902 142.023 95.0451 123.262 127.777 109.818C176.084 89.8928 227.489 76.0092 279.794 73.5927L279.772 73.5707Z" fill="black"/>
<path d="M336.383 140.769C339.502 123.59 309.758 115.265 269.952 122.184C230.146 129.104 195.371 148.634 192.252 165.791C189.132 182.969 218.877 191.295 258.683 184.375C298.488 177.456 333.263 157.926 336.383 140.769Z" fill="black"/>
<path d="M232.388 188.989C214.924 188.989 201.04 185.408 194.34 178.664C190.671 174.952 189.199 170.383 190.1 165.418C193.417 147.141 228.324 127.194 269.579 120.032C299.06 114.914 324.455 118.011 334.297 127.919C337.965 131.631 339.437 136.201 338.536 141.165C335.219 159.443 300.312 179.389 259.057 186.551C249.633 188.199 240.604 188.989 232.388 188.989ZM296.314 121.988C288.318 121.988 279.509 122.756 270.348 124.36C232.102 130.994 197.349 150.172 194.428 166.209C193.791 169.746 194.801 172.887 197.481 175.567C206.202 184.354 230.653 187.034 258.332 182.223C296.578 175.589 331.331 156.411 334.253 140.375C334.89 136.838 333.879 133.696 331.199 131.016C325.356 125.129 312.483 121.988 296.336 121.988H296.314Z" fill="black"/>
</svg>
