<svg width="128" height="159" viewBox="0 0 128 159" fill="none" xmlns="http://www.w3.org/2000/svg">
<g id="modern-workloads-icon" clip-path="url(#clip0_34_304)">
<path id="Vector" d="M103.103 44.124H44.2705C44.2705 27.8779 57.4404 14.708 73.6865 14.708C89.9327 14.708 103.103 27.8779 103.103 44.124Z" fill="white"/>
<path id="Vector_2" d="M128 29.416H69.168C69.168 13.1699 82.3379 0 98.584 0C114.83 0 128 13.1699 128 29.416Z" fill="white"/>
<path id="Vector_3" d="M87.0787 114.957H15.1782V136.012H87.0787V114.957Z" fill="#00F7DB"/>
<path id="Vector_4" d="M87.0787 87.5833H15.1782V108.638H87.0787V87.5833Z" fill="#00F7DB"/>
<path id="Vector_5" d="M87.0787 60.2096H15.1782V81.2645H87.0787V60.2096Z" fill="#00F7DB"/>
<path id="Vector_6" d="M73.8132 75.4444C76.3943 75.4444 78.4867 73.352 78.4867 70.7708C78.4867 68.1897 76.3943 66.0973 73.8132 66.0973C71.2321 66.0973 69.1396 68.1897 69.1396 70.7708C69.1396 73.352 71.2321 75.4444 73.8132 75.4444Z" fill="black"/>
<path id="Vector_7" d="M73.8132 130.121C76.3943 130.121 78.4867 128.029 78.4867 125.448C78.4867 122.867 76.3943 120.774 73.8132 120.774C71.2321 120.774 69.1396 122.867 69.1396 125.448C69.1396 128.029 71.2321 130.121 73.8132 130.121Z" fill="black"/>
<path id="Vector_8" d="M73.8132 102.784C76.3943 102.784 78.4867 100.692 78.4867 98.1108C78.4867 95.5297 76.3943 93.4373 73.8132 93.4373C71.2321 93.4373 69.1396 95.5297 69.1396 98.1108C69.1396 100.692 71.2321 102.784 73.8132 102.784Z" fill="black"/>
<path id="Vector_9" d="M26.9848 125.952H6.21165C3.38781 125.952 1.09863 128.241 1.09863 131.065V151.838C1.09863 154.662 3.38781 156.951 6.21165 156.951H26.9848C29.8087 156.951 32.0979 154.662 32.0979 151.838V131.065C32.0979 128.241 29.8087 125.952 26.9848 125.952Z" fill="black"/>
<path id="Vector_10" d="M26.9821 158.047H6.21168C2.7861 158.047 0 155.261 0 151.835V131.065C0 127.639 2.7861 124.853 6.21168 124.853H26.9821C30.4076 124.853 33.1937 127.639 33.1937 131.065V151.835C33.1937 155.261 30.4076 158.047 26.9821 158.047ZM6.21168 127.051C3.99745 127.051 2.19733 128.851 2.19733 131.065V151.835C2.19733 154.05 3.99745 155.85 6.21168 155.85H26.9821C29.1963 155.85 30.9964 154.05 30.9964 151.835V131.065C30.9964 128.851 29.1963 127.051 26.9821 127.051H6.21168Z" fill="#00F7DB"/>
<path id="Vector_11" d="M5.8368 148.435L11.3048 134.713H14.2655L19.7532 148.435H16.3614L15.3417 145.829H10.2258L9.22576 148.435H5.83398H5.8368ZM11.2653 142.964H14.2852L13.1669 140.221C13.1274 140.13 13.0824 140.026 13.0345 139.911C12.9866 139.795 12.9387 139.68 12.8936 139.559C12.8485 139.437 12.8091 139.325 12.7753 139.22C12.7415 139.325 12.702 139.437 12.657 139.559C12.6119 139.68 12.564 139.798 12.5161 139.911C12.4682 140.026 12.4232 140.128 12.3837 140.221L11.2653 142.964Z" fill="white"/>
<path id="Vector_12" d="M21.438 148.435V134.713H24.534V148.435H21.438Z" fill="white"/>
</g>
<defs>
<clipPath id="clip0_34_304">
<rect width="128" height="158.047" fill="white"/>
</clipPath>
</defs>
</svg>
