<svg width="63" height="69" viewBox="0 0 63 69" fill="none" xmlns="http://www.w3.org/2000/svg">
<g id="play-button">
<g id="Group 27820" opacity="0.499648">
<g id="Group 27820_2">
<path id="Path 94329" d="M31.1369 0C48.3335 0 62.2738 15.307 62.2738 34.1896C62.2738 53.0721 48.3335 68.3791 31.1369 68.3791C13.9403 68.3791 0 53.0721 0 34.1896C0 15.307 13.9403 0 31.1369 0Z" fill="#001021"/>
</g>
</g>
<path id="Path 94328" d="M60.0139 29.2341C59.9958 28.7188 59.9778 28.2126 59.9326 27.7064L59.7789 26.1877C59.7156 25.6905 59.6433 25.1934 59.5529 24.7052C59.1434 22.4128 58.4636 20.2162 57.566 18.1353C57.5588 18.119 57.5533 18.1018 57.5461 18.0846C57.2587 17.4238 56.945 16.7784 56.6123 16.1429C56.5924 16.1041 56.5753 16.0634 56.5545 16.0245C56.2318 15.4134 55.8837 14.8186 55.5203 14.2338C55.4824 14.1723 55.448 14.109 55.4101 14.0484C55.0566 13.4871 54.6806 12.9438 54.2919 12.4087C54.2331 12.3282 54.1789 12.2441 54.1192 12.1637C53.7432 11.6575 53.3472 11.1675 52.9404 10.6857C52.8546 10.5836 52.7723 10.4778 52.6846 10.3766C52.2968 9.9291 51.8918 9.49881 51.4787 9.07576C51.392 8.98717 51.3142 8.89135 51.2274 8.80457C51.1714 8.74943 51.1135 8.6961 51.0575 8.64186C50.8405 8.42762 50.6218 8.217 50.3994 8.00999C50.0577 7.69451 49.7097 7.38807 49.3535 7.08795C49.0887 6.86377 48.8202 6.64501 48.5463 6.42987C48.2064 6.1632 47.8611 5.90196 47.5103 5.64975C47.2057 5.43099 46.8975 5.21947 46.5847 5.01156C46.3686 4.86783 46.1481 4.73133 45.9284 4.59302C45.4701 4.30556 45.0073 4.02805 44.5336 3.76499C44.3167 3.64477 44.0952 3.53087 43.8755 3.41516C43.3955 3.16476 42.9119 2.92431 42.4174 2.70013C42.1372 2.57177 41.8534 2.45064 41.5677 2.33131C41.1365 2.15052 40.7017 1.97877 40.2606 1.81786C39.8764 1.67775 39.4895 1.54487 39.0981 1.42012C38.7645 1.31436 38.4292 1.21402 38.0902 1.1191C37.5695 0.972661 37.0443 0.837971 36.5128 0.718648C36.3211 0.676162 36.1286 0.637292 35.936 0.598422C35.2436 0.458308 34.5439 0.336273 33.8352 0.244069C33.3381 0.180792 32.8318 0.126554 32.3166 0.090396C31.8104 0.045198 31.3041 0.0271188 30.7889 0.0090396C30.5267 0 30.2736 0 30.0115 0C13.4419 0 0 13.4419 0 30.0115C0 46.5901 13.4419 60.023 30.0115 60.023C46.5901 60.023 60.023 46.5901 60.023 30.0115C60.023 29.7493 60.023 29.4962 60.0139 29.2341ZM45.0172 30.1019C45.0263 30.5358 44.8274 30.9426 44.4748 31.1866L44.2037 31.3674L44.1133 31.4578L23.503 43.2093C23.2499 43.4263 22.9335 43.5528 22.599 43.5709C21.7583 43.5799 21.0713 42.902 21.0623 42.0613V18.0792C21.0532 17.2385 21.7312 16.5515 22.5719 16.5425H22.599C22.9335 16.5696 23.2499 16.6961 23.503 16.9041L44.1133 28.6555L44.2037 28.7459L44.4748 28.9267C44.8093 29.207 45.0172 29.6137 45.0172 30.0476V30.1019Z" fill="#1AAAFF"/>
</g>
</svg>
